<?xml version="1.0" encoding="UTF-8"?><svg id="Layer_2" xmlns="http://www.w3.org/2000/svg" viewBox="0 0 523.93 134.16"><defs><style>.cls-1{fill:#279bbf;}.cls-1,.cls-2,.cls-3,.cls-4,.cls-5,.cls-6{stroke-width:0px;}.cls-2{fill:#f60f2b;}.cls-3{fill:#158638;}.cls-4{fill:#4cadc3;}.cls-5{fill:#245a97;}.cls-6{fill:#fff;}</style></defs><g id="Layer_1-2"><path class="cls-1" d="M147.32,61.95c-8.94,0-16.33-2.96-22.19-8.87-5.86-5.91-8.78-13.28-8.78-22.11s2.93-16.19,8.78-22.11c5.86-5.91,13.25-8.87,22.19-8.87,5.38,0,10.35,1.27,14.94,3.82,4.58,2.55,8.17,5.97,10.78,10.27l-13.15,7.55c-1.13-2.09-2.81-3.75-5.05-4.96-2.24-1.22-4.74-1.83-7.51-1.83-4.75,0-8.58,1.49-11.5,4.46-2.92,2.97-4.37,6.86-4.37,11.67s1.46,8.7,4.37,11.67c2.91,2.97,6.75,4.46,11.5,4.46,2.77,0,5.28-.61,7.51-1.82,2.23-1.22,3.92-2.9,5.05-5.05l13.15,7.64c-2.6,4.36-6.18,7.79-10.73,10.31-4.55,2.52-9.55,3.78-14.98,3.78Z"/><path class="cls-1" d="M211.23,60.68v-29.87l-20.96,29.87h-11.8V1.27h15.19v29.87L214.62,1.27h11.71v59.4h-15.11Z"/><path class="cls-1" d="M267.66,1.27h15.11v59.4h-15.11v-22.83h-16.72v22.83h-15.19V1.27h15.19v21.98h16.72V1.27Z"/><path class="cls-1" d="M336.22,1.27v59.4h-15.11v-19.18h-3.22l-11.96,19.18h-16.89l13.58-21.3c-3.51-1.64-6.29-4.02-8.36-7.13-2.07-3.11-3.1-6.59-3.1-10.44,0-5.94,2.04-10.85,6.11-14.72,4.07-3.87,9.14-5.81,15.19-5.81h23.76ZM312.63,28.6h8.49v-13.32h-8.49c-1.81,0-3.32.64-4.54,1.91-1.22,1.27-1.83,2.87-1.83,4.79s.61,3.59,1.83,4.84c1.22,1.25,2.73,1.84,4.54,1.78Z"/><path class="cls-5" d="M143.17,96.44c6.05,0,10.89,1.7,14.51,5.09,3.62,3.39,5.43,7.92,5.43,13.58s-1.81,10.21-5.43,13.66c-3.62,3.45-8.46,5.18-14.51,5.18h-24.52v-59.4h39.38v14.68h-24.19v7.21h9.33ZM142.57,120.03c1.64,0,2.96-.41,3.95-1.23.99-.82,1.49-2.05,1.49-3.69s-.5-2.89-1.49-3.73c-.99-.85-2.31-1.27-3.95-1.27h-8.74v9.93h8.74Z"/><path class="cls-5" d="M175.24,133.95v-44.72h-13.58v-14.68h28.77v17.82h7.89c5.94,0,10.96,1.97,15.06,5.9,4.1,3.93,6.15,8.9,6.15,14.89s-2.04,11.03-6.11,14.94-9.11,5.86-15.11,5.86h-23.08ZM190.43,119.52h7.89c1.7,0,3.13-.59,4.29-1.78,1.16-1.19,1.74-2.72,1.74-4.58s-.58-3.38-1.74-4.54c-1.16-1.16-2.59-1.74-4.29-1.74h-7.89v12.64Z"/><path class="cls-5" d="M221.24,133.95v-14.17c3.17.4,5.47-.07,6.92-1.4,1.44-1.33,2.16-4.09,2.16-8.27v-35.56h42.26v59.4h-15.19v-44.72h-11.88v21.55c0,4.87-.69,8.98-2.08,12.35-1.39,3.37-3.28,5.84-5.69,7.42-2.41,1.58-4.96,2.63-7.68,3.14-2.72.51-5.66.59-8.83.25Z"/><path class="cls-5" d="M317.05,74.55v14.68h-19.94v44.72h-15.19v-59.4h35.13Z"/><path class="cls-5" d="M352.41,133.95l-2.85-8.57h-20.22l-2.56,8.57h-16.44l18.93-59.4h19.13l19.65,59.4h-15.64ZM333.25,112.31h11.96l-6.02-20.2-5.94,20.2Z"/><path class="cls-5" d="M395.46,74.55c6,0,11.03,1.95,15.11,5.85,4.07,3.9,6.11,8.88,6.11,14.94s-2.04,11.03-6.11,14.94c-4.07,3.9-9.11,5.86-15.11,5.86h-7.89v17.82h-15.19v-59.4h23.08ZM395.46,101.7c1.7,0,3.13-.59,4.29-1.78,1.16-1.19,1.74-2.72,1.74-4.58s-.58-3.38-1.74-4.54c-1.16-1.16-2.59-1.74-4.29-1.74h-7.89v12.64h7.89Z"/><path class="cls-5" d="M455.37,133.95v-29.87l-20.96,29.87h-11.8v-59.4h15.19v29.87l20.96-29.87h11.71v59.4h-15.11Z"/><path class="cls-5" d="M523.93,74.55v59.4h-15.11v-19.18h-3.22l-11.96,19.18h-16.89l13.58-21.3c-3.51-1.64-6.29-4.02-8.36-7.13-2.07-3.11-3.1-6.59-3.1-10.44,0-5.94,2.04-10.85,6.11-14.72,4.07-3.87,9.14-5.81,15.19-5.81h23.76ZM500.34,101.87h8.49v-13.32h-8.49c-1.81,0-3.32.64-4.54,1.91-1.22,1.27-1.83,2.87-1.83,4.79s.61,3.59,1.83,4.84c1.22,1.25,2.73,1.84,4.54,1.78Z"/><rect class="cls-6" x="9.82" y="10.62" width="38.9" height="38.9" transform="translate(-12.69 29.51) rotate(-45)"/><path class="cls-4" d="M29.28,4.33l25.74,25.74-25.74,25.74L3.53,30.08,29.28,4.33M29.28.8L0,30.08l29.28,29.28,29.28-29.28L29.28.8h0Z"/><rect class="cls-2" x="8.57" y="81.54" width="41.4" height="41.4" transform="translate(-63.72 50.65) rotate(-45)"/><rect class="cls-3" x="44.66" y="45.46" width="41.4" height="41.4" transform="translate(-27.64 65.6) rotate(-45)"/></g></svg>