<svg xmlns="http://www.w3.org/2000/svg" viewBox="0 0 800 600">
  <!-- Bulgaria 28 oblasts — ISO 3166-2:BG -->
  <!-- Source: Natural Earth ne_10m_admin_1_states_provinces (Public Domain) -->
  <!-- License: Public Domain -->
  <!-- IDs normalized to ISO 3166-2:BG codes (BG-01..BG-28) -->
  <path id="BG-01" d="M 81.28,577.83 L 84.26,576.08 L 84.71,573.76 L 84.08,571.14 L 83.82,568.48 L 84.22,567.72 L 85.66,566.37 L 85.97,565.78 L 85.82,565.06 L 85.10,563.79 L 84.93,563.19 L 84.60,554.47 L 84.53,552.56 L 85.13,550.49 L 85.24,549.76 L 84.95,548.92 L 83.77,547.53 L 83.37,546.82 L 83.16,545.15 L 83.28,543.36 L 83.67,541.64 L 84.26,540.21 L 84.88,539.78 L 86.83,539.35 L 87.52,539.03 L 87.90,538.41 L 88.72,536.60 L 89.81,535.28 L 91.46,533.29 L 92.82,530.39 L 92.73,527.46 L 90.53,524.83 L 89.20,524.37 L 86.26,524.25 L 84.89,523.79 L 84.12,522.87 L 81.45,518.18 L 80.12,513.92 L 79.34,512.44 L 78.76,511.94 L 77.30,511.35 L 76.93,511.04 L 76.77,510.91 L 76.45,509.97 L 76.50,508.13 L 76.31,507.25 L 74.97,504.41 L 74.04,501.54 L 73.82,498.55 L 73.53,497.21 L 72.55,495.86 L 72.51,495.84 L 72.41,494.19 L 72.39,494.12 L 73.98,492.58 L 76.10,490.92 L 78.78,491.26 L 79.74,488.75 L 83.36,484.33 L 86.53,484.19 L 88.66,486.53 L 92.27,486.33 L 95.95,487.34 L 99.20,488.98 L 103.10,488.69 L 106.92,487.86 L 110.43,485.99 L 116.63,483.62 L 119.33,483.59 L 121.72,483.79 L 124.10,483.47 L 139.89,487.27 L 147.00,486.36 L 153.15,482.70 L 159.87,484.56 L 164.02,480.79 L 166.44,476.24 L 171.10,475.76 L 174.41,474.78 L 178.68,474.25 L 181.11,475.04 L 183.35,474.23 L 184.74,472.82 L 186.74,472.91 L 187.92,475.33 L 190.36,476.76 L 192.54,478.48 L 193.33,481.05 L 192.99,483.05 L 191.45,484.50 L 191.49,487.23 L 193.89,489.39 L 190.32,492.47 L 187.18,497.98 L 187.33,500.48 L 186.66,502.54 L 188.14,504.78 L 190.04,506.76 L 190.80,512.38 L 194.04,517.00 L 197.12,518.47 L 199.84,520.55 L 202.03,520.91 L 204.49,520.40 L 206.01,521.90 L 207.31,523.84 L 221.49,531.13 L 223.01,533.29 L 225.30,534.14 L 227.11,534.81 L 228.27,536.38 L 231.60,538.09 L 229.17,540.33 L 225.97,541.90 L 240.85,551.38 L 240.90,551.41 L 240.72,551.50 L 238.89,552.70 L 238.38,553.50 L 237.84,555.45 L 237.48,555.92 L 236.55,555.86 L 236.01,555.32 L 235.45,554.60 L 234.49,554.02 L 230.78,553.20 L 225.81,552.87 L 222.16,554.15 L 222.47,558.15 L 222.81,560.91 L 222.74,561.97 L 221.98,562.91 L 220.59,563.43 L 219.11,563.21 L 216.35,561.83 L 215.90,562.72 L 215.31,563.01 L 214.63,563.13 L 213.93,563.48 L 211.86,565.04 L 210.01,565.14 L 204.15,561.91 L 203.15,561.80 L 199.77,564.15 L 197.77,564.89 L 195.19,565.38 L 192.55,565.61 L 190.35,565.53 L 188.48,566.20 L 185.66,569.74 L 183.63,570.14 L 179.54,569.43 L 175.40,569.45 L 173.00,570.12 L 169.87,572.50 L 169.51,572.68 L 167.96,573.44 L 163.79,573.31 L 155.57,570.11 L 143.29,569.83 L 140.92,570.41 L 137.13,572.49 L 134.91,573.41 L 132.27,573.65 L 130.96,572.71 L 129.79,571.27 L 127.49,570.05 L 125.27,570.16 L 122.36,571.10 L 119.58,572.44 L 117.77,573.74 L 117.35,574.69 L 117.16,576.96 L 116.50,578.18 L 115.39,579.04 L 114.03,579.62 L 111.22,580.25 L 105.99,580.71 L 81.28,577.83 Z"/>
  <path id="BG-02" d="M 658.25,507.36 L 656.60,506.50 L 653.65,503.37 L 651.76,502.17 L 642.60,498.32 L 639.61,496.38 L 636.87,493.96 L 631.59,487.89 L 628.20,485.37 L 624.22,483.61 L 619.84,482.84 L 617.12,483.13 L 615.55,484.06 L 612.78,486.83 L 612.46,487.33 L 612.36,487.77 L 611.82,487.93 L 608.80,487.34 L 606.01,487.25 L 604.62,487.34 L 602.70,486.18 L 600.58,485.27 L 598.32,484.74 L 596.12,484.71 L 596.12,484.69 L 596.02,483.39 L 597.00,478.80 L 594.38,475.42 L 592.63,472.06 L 593.81,468.43 L 595.13,465.87 L 594.72,463.72 L 594.72,460.83 L 596.39,458.68 L 600.54,456.90 L 601.31,453.01 L 598.92,449.57 L 595.15,447.79 L 591.28,447.74 L 587.62,446.79 L 586.25,444.68 L 585.24,442.46 L 573.95,436.29 L 573.85,433.75 L 571.18,432.60 L 566.29,428.12 L 565.22,426.97 L 564.97,425.38 L 564.07,423.73 L 562.44,422.64 L 560.93,419.47 L 559.92,416.00 L 555.18,409.15 L 547.88,408.32 L 543.75,409.90 L 539.44,410.85 L 536.42,409.68 L 533.38,408.22 L 529.44,407.28 L 527.71,404.05 L 530.83,401.96 L 534.73,400.89 L 537.59,399.01 L 536.96,395.90 L 537.49,393.59 L 539.34,391.77 L 537.90,388.57 L 536.11,385.23 L 537.28,382.38 L 536.86,379.92 L 545.94,378.24 L 547.21,380.11 L 547.11,382.88 L 551.48,384.26 L 556.34,383.60 L 560.53,381.83 L 563.21,378.05 L 565.35,377.03 L 567.82,377.13 L 574.89,376.70 L 578.83,378.64 L 582.92,378.02 L 587.85,377.86 L 593.11,379.29 L 599.13,378.09 L 605.00,376.19 L 612.18,375.02 L 619.63,371.86 L 625.66,373.32 L 630.55,376.85 L 634.44,381.45 L 637.11,382.15 L 640.02,382.39 L 645.71,384.90 L 651.87,385.91 L 662.83,383.88 L 667.49,381.71 L 670.87,382.48 L 674.06,383.90 L 677.06,385.98 L 679.74,388.49 L 682.98,390.22 L 686.45,391.55 L 690.09,392.59 L 693.78,392.03 L 696.44,390.26 L 699.44,389.38 L 700.32,389.31 L 700.27,391.36 L 701.27,394.05 L 701.96,397.33 L 701.96,403.29 L 701.66,405.63 L 701.35,406.49 L 694.98,406.77 L 688.28,405.91 L 682.77,405.80 L 681.47,406.00 L 680.58,406.75 L 679.76,408.48 L 679.37,409.83 L 679.51,410.98 L 680.40,411.92 L 682.32,412.65 L 678.98,413.08 L 673.55,414.82 L 670.76,415.21 L 668.47,416.66 L 668.72,419.93 L 670.10,423.41 L 671.18,425.49 L 669.17,424.79 L 657.56,424.57 L 653.90,426.12 L 652.29,428.68 L 651.40,431.76 L 649.99,434.86 L 647.76,434.03 L 646.60,435.21 L 646.66,437.06 L 648.19,438.26 L 647.74,439.12 L 647.62,439.76 L 648.19,441.67 L 648.53,440.73 L 648.72,440.57 L 648.65,440.56 L 648.19,440.04 L 649.06,437.48 L 652.96,440.54 L 654.23,440.81 L 655.75,439.75 L 656.76,438.30 L 658.01,437.71 L 660.20,439.19 L 661.32,437.90 L 662.39,438.06 L 663.40,438.78 L 664.38,439.19 L 666.13,438.82 L 667.36,438.23 L 668.59,437.88 L 670.33,438.26 L 670.27,438.90 L 670.14,439.02 L 669.89,438.99 L 669.48,439.19 L 670.22,441.34 L 671.43,442.88 L 673.37,443.19 L 676.35,441.67 L 676.59,442.84 L 677.28,443.46 L 678.37,443.60 L 679.76,443.36 L 679.76,444.29 L 679.04,444.45 L 677.15,445.15 L 678.07,446.36 L 678.60,446.67 L 679.76,446.85 L 678.58,448.09 L 678.43,449.79 L 679.18,451.52 L 680.61,452.80 L 682.43,453.38 L 683.89,453.24 L 685.43,452.88 L 687.42,452.80 L 687.42,453.58 L 686.69,454.26 L 686.67,454.95 L 687.26,455.62 L 688.34,456.29 L 685.24,458.20 L 683.77,460.52 L 684.36,462.83 L 687.42,464.72 L 686.87,465.05 L 686.82,465.18 L 686.58,465.64 L 691.07,467.82 L 691.76,468.63 L 692.35,469.54 L 693.77,470.74 L 695.45,471.85 L 696.86,472.45 L 696.61,472.87 L 696.26,473.84 L 696.01,474.22 L 699.71,475.82 L 700.67,476.68 L 702.82,480.11 L 709.52,483.29 L 710.34,484.50 L 711.38,485.65 L 713.11,486.06 L 712.59,487.43 L 713.20,488.60 L 714.40,489.56 L 715.66,490.32 L 715.73,490.94 L 715.54,491.11 L 715.21,491.12 L 714.80,491.25 L 716.22,492.38 L 717.16,493.99 L 717.32,495.72 L 716.51,497.21 L 716.87,498.46 L 712.42,497.72 L 710.53,497.27 L 704.44,497.80 L 702.74,497.41 L 699.44,496.20 L 696.37,495.61 L 695.22,495.57 L 692.85,495.86 L 692.34,495.71 L 691.84,495.65 L 691.34,495.71 L 690.85,495.86 L 690.47,497.11 L 690.47,498.80 L 690.20,500.02 L 692.13,500.92 L 691.77,501.68 L 690.21,502.14 L 688.59,502.19 L 686.89,501.76 L 680.38,499.08 L 675.78,498.96 L 666.09,500.84 L 665.79,502.08 L 665.35,502.69 L 664.69,502.70 L 663.75,502.16 L 662.73,503.16 L 661.47,503.79 L 658.79,504.49 L 658.96,504.79 L 659.31,504.97 L 659.69,505.13 L 660.03,505.30 L 659.63,505.58 L 658.86,505.87 L 658.56,506.15 L 660.29,506.71 L 658.25,507.36 Z"/>
  <path id="BG-03" d="M 725.62,326.14 L 718.66,339.39 L 716.97,341.41 L 714.80,342.60 L 706.30,344.27 L 704.88,344.98 L 704.04,345.20 L 702.82,345.20 L 702.82,346.05 L 707.15,348.42 L 708.00,349.37 L 707.85,350.83 L 705.45,356.26 L 703.74,362.29 L 702.86,363.45 L 701.76,364.27 L 700.79,365.16 L 700.27,366.55 L 700.50,369.34 L 702.37,375.04 L 702.82,377.61 L 702.13,386.04 L 702.82,387.90 L 700.32,389.31 L 699.44,389.38 L 696.44,390.26 L 693.78,392.03 L 690.09,392.59 L 686.45,391.55 L 682.98,390.22 L 679.74,388.49 L 677.06,385.98 L 674.06,383.90 L 670.87,382.48 L 667.49,381.71 L 662.83,383.88 L 651.87,385.91 L 645.71,384.90 L 640.02,382.39 L 637.11,382.15 L 634.44,381.45 L 630.55,376.85 L 625.66,373.32 L 619.63,371.86 L 612.18,375.02 L 605.00,376.19 L 601.79,373.38 L 599.93,370.30 L 602.86,368.64 L 610.33,365.60 L 616.21,364.51 L 615.53,361.48 L 609.84,360.03 L 613.32,357.94 L 610.43,355.46 L 612.49,352.79 L 616.52,351.11 L 616.61,348.17 L 612.49,346.99 L 609.23,344.62 L 609.70,341.54 L 612.49,340.01 L 616.87,339.70 L 621.15,338.96 L 621.38,336.52 L 621.34,333.37 L 624.78,332.44 L 627.86,330.65 L 626.17,328.51 L 624.02,326.34 L 623.89,323.20 L 625.03,320.85 L 627.52,318.78 L 631.96,314.08 L 630.38,312.37 L 628.90,311.38 L 630.37,309.90 L 631.77,307.09 L 625.68,305.60 L 632.34,301.32 L 642.36,299.22 L 647.30,300.28 L 651.02,304.10 L 651.84,307.10 L 654.95,308.20 L 656.27,307.64 L 657.27,306.87 L 659.78,306.63 L 662.17,305.79 L 663.47,303.39 L 665.41,302.87 L 669.70,307.36 L 674.66,310.73 L 679.28,311.42 L 682.49,313.49 L 684.78,316.60 L 690.94,322.10 L 698.29,324.87 L 700.84,324.23 L 702.88,322.52 L 706.54,321.27 L 710.48,321.46 L 713.90,323.98 L 716.47,326.41 L 720.86,326.39 L 725.24,326.02 L 725.62,326.14 Z"/>
  <path id="BG-04" d="M 376.46,284.37 L 376.87,284.55 L 381.15,286.95 L 385.71,288.87 L 391.13,289.40 L 393.99,288.86 L 399.15,287.19 L 401.02,286.95 L 401.94,288.36 L 404.23,293.84 L 401.55,298.13 L 398.82,299.70 L 399.48,302.38 L 405.83,305.90 L 406.05,307.43 L 407.97,307.66 L 409.67,306.25 L 411.54,307.06 L 410.33,310.56 L 409.45,313.92 L 416.38,319.00 L 423.49,320.98 L 425.10,318.69 L 428.10,318.68 L 429.11,320.12 L 431.01,320.09 L 432.88,321.61 L 435.34,323.28 L 439.57,324.16 L 443.87,324.45 L 447.10,325.01 L 450.36,324.91 L 453.86,323.59 L 457.47,323.65 L 458.11,326.33 L 459.21,329.25 L 463.54,330.45 L 468.07,330.68 L 472.85,332.00 L 476.28,334.84 L 473.65,336.92 L 473.43,339.69 L 477.51,343.63 L 478.94,348.24 L 477.20,348.51 L 475.39,348.50 L 474.59,350.31 L 474.63,352.45 L 472.89,355.16 L 472.66,358.14 L 474.27,360.81 L 475.70,363.59 L 476.29,365.49 L 477.78,366.63 L 479.50,367.07 L 479.39,368.70 L 476.66,370.41 L 477.31,373.22 L 482.42,374.06 L 486.95,376.76 L 484.16,381.65 L 478.75,383.97 L 475.77,384.61 L 473.85,386.83 L 474.14,390.43 L 472.61,393.19 L 469.69,393.18 L 466.81,393.66 L 464.23,395.79 L 461.45,397.31 L 453.26,396.44 L 447.63,397.35 L 441.95,397.48 L 439.31,397.20 L 436.68,397.53 L 434.34,397.28 L 432.08,396.73 L 427.53,398.29 L 425.22,399.71 L 423.30,400.65 L 421.09,399.63 L 418.17,399.46 L 415.32,394.36 L 417.98,390.47 L 419.06,387.57 L 419.11,384.31 L 417.64,382.46 L 415.20,381.92 L 409.85,378.01 L 412.73,371.13 L 410.61,366.27 L 403.04,365.34 L 399.17,364.46 L 390.46,364.71 L 382.37,364.03 L 379.13,362.92 L 377.47,359.62 L 375.68,356.96 L 358.80,356.75 L 355.53,354.87 L 353.43,351.70 L 350.69,350.24 L 349.93,347.85 L 355.41,343.59 L 354.80,335.53 L 357.18,335.16 L 359.54,334.63 L 361.58,333.22 L 363.84,332.09 L 369.02,328.47 L 368.35,323.78 L 365.71,319.81 L 364.61,315.32 L 359.28,315.53 L 357.84,312.87 L 361.80,309.99 L 365.41,306.66 L 368.23,302.29 L 367.27,301.09 L 365.22,300.85 L 364.25,296.99 L 367.97,293.68 L 369.70,288.64 L 372.75,286.63 L 376.10,285.12 L 376.46,284.37 Z"/>
  <path id="BG-05" d="M 38.69,238.13 L 40.90,237.82 L 42.37,235.89 L 42.36,234.80 L 41.55,232.16 L 41.42,230.94 L 41.66,229.54 L 42.95,225.85 L 42.77,225.84 L 42.52,225.45 L 42.38,224.79 L 42.55,224.03 L 42.85,223.87 L 44.87,222.18 L 46.76,219.94 L 47.86,219.11 L 53.20,217.31 L 79.97,230.47 L 84.48,231.89 L 90.15,232.45 L 92.67,233.27 L 95.49,234.18 L 96.62,238.02 L 94.50,241.84 L 90.15,243.58 L 87.43,243.84 L 82.47,245.02 L 79.89,245.29 L 77.41,246.47 L 76.01,249.27 L 73.00,258.62 L 73.06,261.44 L 74.61,263.80 L 77.77,265.78 L 81.61,266.44 L 98.18,265.37 L 97.63,269.83 L 96.64,272.76 L 93.56,273.39 L 90.49,273.21 L 88.54,274.98 L 90.38,276.69 L 92.89,277.14 L 95.30,277.88 L 96.11,280.41 L 97.47,282.96 L 96.11,284.72 L 90.08,286.36 L 85.73,291.30 L 83.91,298.00 L 85.28,299.85 L 88.01,300.30 L 88.75,302.67 L 87.72,304.76 L 80.72,306.34 L 73.52,306.95 L 68.90,308.20 L 66.39,309.23 L 66.46,311.87 L 63.16,318.41 L 57.27,322.30 L 56.65,321.97 L 54.61,321.30 L 53.40,321.20 L 51.03,321.29 L 49.84,320.97 L 49.12,320.40 L 48.82,320.16 L 47.43,318.03 L 46.49,317.28 L 45.33,317.04 L 42.64,317.15 L 41.31,316.93 L 40.13,316.27 L 38.38,314.56 L 37.51,313.91 L 33.38,312.48 L 31.67,311.31 L 30.48,308.93 L 28.15,303.00 L 26.63,300.72 L 26.53,300.10 L 26.65,299.48 L 27.00,298.86 L 27.16,298.54 L 27.21,298.22 L 27.16,297.91 L 27.00,297.61 L 26.59,297.18 L 26.46,296.72 L 26.59,296.27 L 27.00,295.82 L 27.04,295.77 L 27.07,295.70 L 27.04,295.64 L 27.00,295.56 L 26.05,294.02 L 25.93,291.16 L 25.11,289.51 L 23.82,288.61 L 20.15,287.13 L 18.59,286.08 L 17.46,284.77 L 16.47,283.25 L 15.67,281.62 L 15.11,279.99 L 15.09,278.96 L 15.55,276.88 L 15.42,275.91 L 12.19,273.10 L 10.55,269.72 L 11.21,267.01 L 12.81,264.14 L 13.99,260.30 L 14.24,256.56 L 14.61,255.93 L 15.85,254.28 L 16.17,253.72 L 16.45,251.77 L 16.52,248.16 L 16.80,246.61 L 18.32,244.92 L 21.13,244.04 L 25.06,243.59 L 27.00,243.36 L 29.77,243.30 L 31.18,242.01 L 32.13,240.21 L 33.57,238.66 L 36.12,238.00 L 38.69,238.13 Z"/>
  <path id="BG-06" d="M 169.01,266.47 L 170.91,266.70 L 181.46,265.00 L 184.21,265.39 L 191.32,268.41 L 234.91,276.35 L 236.12,276.58 L 258.22,275.79 L 257.26,281.77 L 252.10,287.50 L 245.12,290.02 L 241.12,289.73 L 237.73,291.90 L 234.35,294.89 L 231.24,297.01 L 233.73,300.82 L 235.13,305.31 L 238.53,309.18 L 244.29,310.03 L 246.57,315.89 L 246.70,318.01 L 245.73,320.44 L 244.69,327.66 L 238.78,329.92 L 234.44,329.38 L 230.21,329.57 L 227.84,330.69 L 226.46,332.02 L 224.63,331.40 L 222.79,331.06 L 213.60,333.70 L 211.38,337.37 L 210.12,339.86 L 211.20,341.55 L 219.60,344.03 L 220.62,348.81 L 219.60,353.81 L 218.30,356.61 L 215.14,356.60 L 212.99,355.19 L 211.07,356.14 L 211.74,359.67 L 213.45,362.95 L 211.16,365.49 L 208.24,366.95 L 206.11,365.84 L 204.09,365.08 L 191.78,363.42 L 187.10,361.96 L 183.66,363.59 L 180.96,366.10 L 177.84,367.01 L 174.55,366.89 L 172.66,365.17 L 170.69,363.80 L 165.37,367.08 L 160.50,369.27 L 157.94,367.17 L 156.06,364.39 L 153.15,361.62 L 149.85,359.32 L 147.75,358.27 L 145.87,356.92 L 145.79,354.44 L 147.54,353.38 L 150.18,353.36 L 149.22,351.68 L 145.39,350.23 L 141.35,350.11 L 141.06,346.75 L 144.55,344.64 L 147.80,344.42 L 149.40,341.57 L 141.72,338.49 L 132.41,336.06 L 133.46,332.61 L 136.54,329.81 L 139.08,326.35 L 142.11,323.24 L 143.07,318.38 L 142.83,313.59 L 146.64,309.59 L 151.73,307.44 L 154.72,308.80 L 157.20,308.93 L 159.70,308.80 L 162.48,306.42 L 165.47,304.73 L 167.53,305.70 L 169.25,304.57 L 169.09,303.05 L 167.56,302.42 L 166.23,301.45 L 165.27,300.24 L 163.75,299.88 L 162.42,299.17 L 160.31,297.65 L 160.98,295.80 L 163.18,294.67 L 164.64,293.01 L 164.44,291.49 L 164.76,290.01 L 167.24,285.88 L 169.21,281.42 L 170.56,270.59 L 169.01,266.47 Z"/>
  <path id="BG-07" d="M 342.33,401.79 L 342.29,400.51 L 341.21,394.42 L 338.10,388.71 L 333.20,386.18 L 327.79,384.27 L 326.57,382.90 L 325.84,381.30 L 326.33,379.40 L 325.72,377.61 L 324.37,372.06 L 330.94,366.22 L 329.87,362.16 L 331.46,357.09 L 336.12,354.59 L 337.03,349.89 L 339.07,346.00 L 344.88,346.62 L 349.93,347.85 L 350.69,350.24 L 353.43,351.70 L 355.53,354.87 L 358.80,356.75 L 375.68,356.96 L 377.47,359.62 L 379.13,362.92 L 382.37,364.03 L 390.46,364.71 L 399.17,364.46 L 403.04,365.34 L 410.61,366.27 L 412.73,371.13 L 409.85,378.01 L 415.20,381.92 L 417.64,382.46 L 419.11,384.31 L 419.06,387.57 L 417.98,390.47 L 415.32,394.36 L 418.17,399.46 L 419.06,401.76 L 417.26,403.08 L 414.77,401.57 L 412.64,399.42 L 410.61,398.74 L 407.66,401.20 L 405.33,400.51 L 403.45,401.40 L 401.19,402.14 L 399.13,401.64 L 397.03,401.38 L 394.02,403.09 L 390.00,403.34 L 383.50,401.25 L 376.75,400.27 L 371.70,402.47 L 369.65,400.88 L 367.84,398.75 L 361.60,398.99 L 355.17,401.26 L 348.73,402.18 L 342.33,401.79 Z"/>
  <path id="BG-08" d="M 675.21,247.37 L 680.10,252.17 L 688.28,250.72 L 696.89,247.20 L 703.82,246.61 L 703.82,246.63 L 706.79,250.22 L 712.42,264.56 L 716.63,266.97 L 742.36,275.45 L 768.94,278.78 L 786.87,278.03 L 786.59,279.74 L 786.21,294.87 L 786.51,296.47 L 787.78,298.65 L 789.05,300.16 L 789.90,301.53 L 790.00,303.34 L 788.88,306.54 L 786.88,310.49 L 784.61,313.85 L 782.73,315.26 L 781.46,315.75 L 775.68,319.76 L 774.51,320.96 L 773.84,322.52 L 773.75,324.69 L 772.05,322.97 L 766.45,320.70 L 765.25,319.98 L 763.86,318.78 L 760.73,317.85 L 754.87,317.04 L 752.07,317.44 L 747.38,319.20 L 745.09,319.59 L 736.97,319.32 L 734.38,319.59 L 729.59,321.62 L 726.19,325.05 L 725.62,326.14 L 725.24,326.02 L 720.86,326.39 L 716.47,326.41 L 713.90,323.98 L 710.48,321.46 L 706.54,321.27 L 702.88,322.52 L 700.84,324.23 L 698.29,324.87 L 690.94,322.10 L 684.78,316.60 L 682.49,313.49 L 679.28,311.42 L 674.66,310.73 L 669.70,307.36 L 665.41,302.87 L 663.47,303.39 L 662.17,305.79 L 659.78,306.63 L 657.27,306.87 L 656.27,307.64 L 654.95,308.20 L 651.84,307.10 L 651.02,304.10 L 647.30,300.28 L 642.36,299.22 L 641.10,295.81 L 638.22,294.47 L 633.20,295.16 L 628.27,296.28 L 624.66,295.02 L 622.09,291.24 L 615.09,287.05 L 617.52,287.46 L 619.69,286.82 L 616.69,283.43 L 617.01,277.85 L 623.05,273.86 L 624.60,271.37 L 627.09,270.40 L 632.81,273.78 L 638.27,273.70 L 636.73,267.58 L 639.86,265.76 L 643.77,265.18 L 650.13,266.86 L 655.14,264.22 L 654.83,260.35 L 656.31,256.57 L 659.42,255.95 L 662.19,257.78 L 665.86,257.25 L 666.23,254.87 L 665.52,253.43 L 667.82,253.36 L 670.10,251.49 L 669.49,248.73 L 671.81,247.30 L 675.17,247.37 L 675.21,247.37 Z"/>
  <path id="BG-09" d="M 472.94,539.44 L 473.86,540.47 L 475.64,541.10 L 477.39,541.36 L 478.82,541.87 L 479.89,542.82 L 480.61,543.87 L 481.76,547.05 L 481.85,548.00 L 481.65,549.96 L 481.87,550.80 L 482.57,551.23 L 484.53,551.50 L 485.22,552.09 L 485.85,553.73 L 486.02,555.15 L 485.83,556.55 L 485.38,558.13 L 483.92,559.26 L 483.70,560.10 L 484.99,562.29 L 485.52,562.86 L 487.24,564.09 L 487.63,564.84 L 487.41,565.85 L 486.78,566.14 L 485.99,566.35 L 485.34,567.10 L 483.95,570.21 L 482.03,573.37 L 480.58,575.08 L 479.81,575.41 L 478.90,575.23 L 468.24,577.09 L 466.63,577.70 L 463.31,579.39 L 460.49,580.42 L 459.11,580.55 L 457.44,580.30 L 455.70,580.29 L 452.59,581.51 L 450.82,581.78 L 448.41,581.03 L 444.75,577.97 L 441.97,577.17 L 440.69,577.54 L 436.04,579.91 L 431.71,580.16 L 430.31,580.53 L 428.78,581.38 L 427.89,582.05 L 427.04,582.48 L 425.63,582.64 L 424.45,582.39 L 421.85,581.23 L 420.62,580.91 L 409.62,580.33 L 407.94,580.76 L 406.97,581.94 L 406.16,583.32 L 405.06,584.35 L 403.84,584.71 L 402.87,584.63 L 401.90,584.40 L 400.60,584.31 L 397.41,584.73 L 376.50,589.84 L 373.58,590.00 L 370.69,589.65 L 368.27,588.55 L 362.96,583.05 L 360.57,581.52 L 360.06,581.35 L 360.18,580.00 L 359.14,574.12 L 359.55,572.93 L 360.18,571.85 L 358.82,570.32 L 357.69,568.80 L 359.37,566.01 L 359.81,562.93 L 359.20,561.77 L 359.95,560.17 L 358.60,554.43 L 351.94,555.86 L 349.71,558.41 L 346.76,557.30 L 344.32,553.79 L 342.34,550.01 L 340.10,547.70 L 340.07,544.94 L 342.73,544.18 L 345.56,544.58 L 349.00,543.93 L 352.13,542.19 L 352.59,541.25 L 351.64,540.07 L 351.41,537.19 L 352.23,534.75 L 350.49,533.44 L 349.13,529.27 L 346.99,527.00 L 345.66,524.85 L 347.07,522.39 L 349.26,520.60 L 352.25,520.80 L 352.98,518.85 L 353.61,516.11 L 356.38,514.42 L 357.53,511.70 L 359.51,509.78 L 361.33,509.28 L 362.45,507.82 L 365.31,506.44 L 368.63,507.05 L 367.16,510.19 L 371.70,517.85 L 378.28,518.76 L 382.07,517.78 L 384.90,515.17 L 387.02,514.23 L 389.41,514.16 L 390.77,516.06 L 390.61,518.49 L 391.79,520.25 L 396.88,521.96 L 399.57,523.71 L 402.24,523.54 L 404.41,521.72 L 407.14,521.63 L 409.45,523.74 L 411.58,524.77 L 413.89,524.78 L 415.31,525.80 L 416.64,527.33 L 419.91,532.32 L 417.09,537.27 L 416.37,540.70 L 420.54,542.36 L 422.96,542.01 L 425.67,541.10 L 427.77,541.99 L 429.97,542.27 L 432.48,540.91 L 433.99,538.45 L 438.38,536.84 L 442.73,538.06 L 443.20,540.61 L 444.04,543.06 L 449.70,547.62 L 455.16,549.54 L 460.15,545.90 L 461.06,543.33 L 463.10,542.48 L 465.38,542.52 L 466.74,540.44 L 472.05,539.09 L 472.88,539.42 L 472.94,539.44 Z"/>
  <path id="BG-10" d="M 10.00,455.98 L 12.38,455.04 L 17.57,454.97 L 19.84,454.43 L 21.64,452.66 L 23.63,448.09 L 25.55,446.23 L 27.45,445.55 L 29.01,445.29 L 30.42,444.58 L 31.74,442.58 L 33.44,438.01 L 33.87,435.42 L 33.37,433.55 L 33.37,433.53 L 32.41,431.77 L 30.83,430.34 L 27.00,428.29 L 20.55,423.83 L 20.01,423.65 L 20.45,421.17 L 22.00,416.17 L 27.00,415.87 L 33.11,416.56 L 37.85,416.23 L 41.65,417.72 L 43.30,421.25 L 45.63,424.25 L 47.81,425.95 L 48.33,428.52 L 50.39,430.34 L 54.09,429.57 L 56.27,432.00 L 55.88,435.97 L 57.87,438.13 L 60.43,440.48 L 62.37,442.85 L 65.16,444.14 L 67.93,446.17 L 70.00,448.83 L 72.95,450.16 L 76.36,449.66 L 81.32,446.59 L 88.86,446.13 L 91.64,445.60 L 98.38,447.27 L 100.73,448.37 L 102.87,448.18 L 104.44,444.79 L 107.99,447.06 L 111.72,447.52 L 115.04,448.85 L 118.51,448.54 L 120.70,448.28 L 122.73,449.09 L 125.63,448.97 L 128.26,448.48 L 132.46,455.52 L 133.90,456.10 L 134.82,457.33 L 136.85,459.00 L 139.56,459.75 L 141.40,462.38 L 140.06,463.93 L 137.55,464.57 L 136.03,466.79 L 132.09,470.65 L 133.88,473.46 L 139.47,472.87 L 144.98,471.76 L 148.20,473.61 L 150.62,476.80 L 154.34,477.03 L 157.65,478.19 L 156.33,480.89 L 153.15,482.70 L 147.00,486.36 L 139.89,487.27 L 124.10,483.47 L 121.72,483.79 L 119.33,483.59 L 116.63,483.62 L 110.43,485.99 L 106.92,487.86 L 103.10,488.69 L 99.20,488.98 L 95.95,487.34 L 92.27,486.33 L 88.66,486.53 L 86.53,484.19 L 83.36,484.33 L 79.74,488.75 L 78.78,491.26 L 76.10,490.92 L 73.98,492.58 L 72.39,494.12 L 72.15,493.24 L 71.47,492.62 L 70.06,491.92 L 69.36,491.88 L 67.45,492.38 L 66.57,492.40 L 65.59,491.83 L 65.17,490.98 L 64.87,490.17 L 64.32,489.66 L 63.04,489.56 L 57.36,489.75 L 56.54,489.50 L 55.98,488.98 L 55.52,488.44 L 54.95,488.07 L 51.23,487.49 L 45.16,485.18 L 43.99,484.74 L 33.19,478.95 L 30.58,477.00 L 30.18,476.48 L 28.65,474.54 L 27.00,470.95 L 22.29,468.32 L 10.00,455.98 Z"/>
  <path id="BG-11" d="M 309.98,406.63 L 303.99,405.73 L 299.06,402.51 L 294.86,398.42 L 289.21,396.77 L 283.29,396.28 L 278.58,396.34 L 270.80,401.36 L 265.70,400.96 L 261.67,401.26 L 257.70,400.60 L 254.81,399.10 L 251.80,397.87 L 236.02,397.73 L 233.54,394.89 L 235.22,389.88 L 235.45,385.82 L 235.13,381.79 L 232.38,378.42 L 227.55,377.60 L 224.44,375.35 L 221.83,373.06 L 222.78,370.44 L 221.99,367.87 L 220.24,366.57 L 219.29,364.73 L 217.04,362.91 L 213.45,362.95 L 211.74,359.67 L 211.07,356.14 L 212.99,355.19 L 215.14,356.60 L 218.30,356.61 L 219.60,353.81 L 220.62,348.81 L 219.60,344.03 L 226.26,341.15 L 232.81,338.96 L 235.76,340.75 L 238.57,340.31 L 242.41,341.85 L 245.58,342.21 L 248.61,341.55 L 252.26,340.46 L 255.77,339.80 L 257.89,337.95 L 260.37,336.29 L 262.75,335.74 L 265.18,335.77 L 267.43,337.53 L 269.11,339.93 L 271.48,341.62 L 280.49,343.54 L 286.58,343.73 L 287.42,344.43 L 287.85,345.35 L 289.77,344.82 L 294.18,342.07 L 296.51,339.93 L 297.54,338.17 L 298.96,336.71 L 300.30,338.14 L 301.70,337.42 L 303.45,335.47 L 310.09,331.94 L 317.69,331.62 L 320.57,331.80 L 325.26,331.36 L 327.97,333.71 L 331.20,333.59 L 334.69,332.85 L 338.41,331.69 L 341.72,329.91 L 343.94,328.33 L 344.61,325.07 L 347.11,327.59 L 350.26,332.29 L 354.80,335.53 L 355.41,343.59 L 349.93,347.85 L 344.88,346.62 L 339.07,346.00 L 337.03,349.89 L 336.12,354.59 L 331.46,357.09 L 329.87,362.16 L 330.94,366.22 L 324.37,372.06 L 325.72,377.61 L 326.33,379.40 L 325.84,381.30 L 326.57,382.90 L 327.79,384.27 L 333.20,386.18 L 338.10,388.71 L 341.21,394.42 L 342.29,400.51 L 338.40,401.18 L 337.10,402.27 L 336.67,403.80 L 331.51,406.05 L 325.78,406.53 L 319.41,405.44 L 312.86,405.42 L 311.86,406.32 L 309.98,406.63 Z"/>
  <path id="BG-12" d="M 89.50,347.07 L 89.31,345.61 L 87.23,344.94 L 81.10,343.96 L 78.89,342.95 L 77.15,341.68 L 73.85,338.39 L 70.84,336.18 L 70.06,335.34 L 69.68,334.36 L 69.29,332.09 L 68.84,331.09 L 67.27,329.41 L 58.35,322.87 L 57.27,322.30 L 63.16,318.41 L 66.46,311.87 L 66.39,309.23 L 68.90,308.20 L 73.52,306.95 L 80.72,306.34 L 87.72,304.76 L 88.75,302.67 L 88.01,300.30 L 85.28,299.85 L 83.91,298.00 L 85.73,291.30 L 90.08,286.36 L 96.11,284.72 L 97.47,282.96 L 96.11,280.41 L 95.30,277.88 L 92.89,277.14 L 90.38,276.69 L 88.54,274.98 L 90.49,273.21 L 93.56,273.39 L 96.64,272.76 L 97.63,269.83 L 98.18,265.37 L 108.06,264.73 L 111.81,263.57 L 116.18,262.89 L 120.85,261.08 L 132.15,259.92 L 152.04,260.66 L 165.50,266.04 L 169.01,266.47 L 170.56,270.59 L 169.21,281.42 L 167.24,285.88 L 164.76,290.01 L 164.44,291.49 L 164.64,293.01 L 163.18,294.67 L 160.98,295.80 L 160.31,297.65 L 162.42,299.17 L 163.75,299.88 L 165.27,300.24 L 166.23,301.45 L 167.56,302.42 L 169.09,303.05 L 169.25,304.57 L 167.53,305.70 L 165.47,304.73 L 162.48,306.42 L 159.70,308.80 L 157.20,308.93 L 154.72,308.80 L 151.73,307.44 L 146.64,309.59 L 142.83,313.59 L 143.07,318.38 L 142.11,323.24 L 139.08,326.35 L 136.54,329.81 L 133.46,332.61 L 132.41,336.06 L 141.72,338.49 L 149.40,341.57 L 147.80,344.42 L 144.55,344.64 L 141.06,346.75 L 141.35,350.11 L 136.84,353.75 L 131.27,355.35 L 127.28,354.32 L 123.38,355.08 L 119.09,356.56 L 107.50,355.81 L 104.22,353.99 L 95.23,346.12 L 89.50,347.07 Z"/>
  <path id="BG-13" d="M 267.13,424.99 L 265.70,430.93 L 265.42,437.20 L 268.12,437.62 L 269.65,440.78 L 269.42,442.02 L 269.55,444.79 L 270.76,447.56 L 270.74,449.97 L 272.99,450.66 L 275.88,454.35 L 274.03,457.61 L 274.20,459.45 L 276.22,461.63 L 277.18,465.02 L 276.56,468.58 L 276.47,471.07 L 278.55,472.25 L 280.54,474.01 L 278.70,475.89 L 275.26,476.53 L 272.38,478.23 L 272.78,483.40 L 271.28,486.21 L 271.97,489.65 L 273.92,495.55 L 272.49,501.35 L 271.08,504.83 L 269.10,508.81 L 264.48,510.57 L 260.84,512.31 L 255.55,517.80 L 255.47,523.58 L 250.07,527.21 L 242.96,527.36 L 240.57,529.05 L 238.34,528.93 L 239.28,526.73 L 239.85,524.45 L 234.90,521.07 L 228.68,520.34 L 224.12,520.97 L 224.53,523.97 L 226.81,525.33 L 228.68,527.19 L 229.01,531.26 L 225.30,534.14 L 223.01,533.29 L 221.49,531.13 L 207.31,523.84 L 206.01,521.90 L 204.49,520.40 L 202.03,520.91 L 199.84,520.55 L 197.12,518.47 L 194.04,517.00 L 190.80,512.38 L 190.04,506.76 L 188.14,504.78 L 186.66,502.54 L 187.33,500.48 L 187.18,497.98 L 190.32,492.47 L 193.89,489.39 L 191.49,487.23 L 191.45,484.50 L 192.99,483.05 L 193.33,481.05 L 192.54,478.48 L 190.36,476.76 L 187.92,475.33 L 186.74,472.91 L 188.93,472.49 L 190.80,471.53 L 190.60,469.86 L 191.44,468.71 L 197.33,466.91 L 201.38,462.46 L 202.36,458.81 L 205.35,458.15 L 206.81,459.74 L 208.43,461.00 L 211.03,461.64 L 213.03,459.74 L 212.94,457.67 L 210.97,456.46 L 208.97,451.82 L 211.20,446.15 L 216.21,445.72 L 221.04,444.19 L 223.08,439.58 L 221.08,437.10 L 214.78,437.87 L 210.05,434.73 L 208.50,432.99 L 206.46,431.79 L 204.73,429.51 L 203.56,426.87 L 204.30,424.06 L 207.99,423.09 L 211.44,422.85 L 214.77,423.75 L 217.49,425.47 L 220.59,426.08 L 226.41,423.65 L 229.54,423.61 L 232.41,422.56 L 235.89,418.93 L 240.45,417.55 L 242.63,417.24 L 244.79,416.57 L 248.35,416.75 L 251.77,417.61 L 253.18,419.54 L 253.87,421.76 L 256.08,422.53 L 258.46,423.03 L 259.93,424.61 L 261.83,424.68 L 264.49,424.30 L 267.13,424.99 Z"/>
  <path id="BG-14" d="M 50.03,386.38 L 53.82,385.69 L 57.61,384.51 L 59.08,383.20 L 59.17,383.02 L 59.84,383.53 L 62.57,385.32 L 64.71,387.77 L 65.38,389.30 L 66.51,390.47 L 67.71,390.37 L 68.60,391.00 L 70.68,390.67 L 72.33,388.47 L 74.19,389.23 L 73.41,393.14 L 75.85,394.40 L 78.96,393.07 L 81.37,395.21 L 83.50,398.32 L 87.26,398.31 L 88.59,399.97 L 90.94,400.36 L 94.73,399.99 L 97.17,402.87 L 99.05,406.57 L 102.33,408.19 L 105.25,410.37 L 107.43,411.68 L 110.02,412.65 L 111.33,414.73 L 112.21,417.08 L 112.78,421.45 L 116.65,422.57 L 124.03,426.73 L 126.34,428.71 L 122.15,433.39 L 119.36,438.97 L 120.63,444.41 L 119.01,446.26 L 118.51,448.54 L 115.04,448.85 L 111.72,447.52 L 107.99,447.06 L 104.44,444.79 L 102.87,448.18 L 100.73,448.37 L 98.38,447.27 L 91.64,445.60 L 88.86,446.13 L 81.32,446.59 L 76.36,449.66 L 72.95,450.16 L 70.00,448.83 L 67.93,446.17 L 65.16,444.14 L 62.37,442.85 L 60.43,440.48 L 57.87,438.13 L 55.88,435.97 L 56.27,432.00 L 54.09,429.57 L 50.39,430.34 L 48.33,428.52 L 47.81,425.95 L 45.63,424.25 L 43.30,421.25 L 41.65,417.72 L 37.85,416.23 L 33.11,416.56 L 27.00,415.87 L 22.00,416.17 L 22.40,414.87 L 22.98,411.80 L 22.10,410.09 L 25.34,405.52 L 27.00,404.35 L 27.14,403.98 L 27.18,403.59 L 27.14,403.21 L 27.00,402.84 L 25.15,401.76 L 23.47,399.88 L 20.51,394.58 L 20.07,394.11 L 20.27,393.64 L 20.65,393.21 L 21.44,392.31 L 22.52,391.58 L 25.69,390.34 L 27.00,389.51 L 28.95,387.31 L 30.07,386.60 L 31.78,386.57 L 34.00,386.82 L 34.86,386.44 L 34.90,386.40 L 35.54,385.70 L 37.24,384.84 L 40.64,384.51 L 50.03,386.38 Z"/>
  <path id="BG-15" d="M 274.38,270.41 L 278.59,270.77 L 298.74,276.24 L 304.20,277.72 L 310.06,278.34 L 336.36,276.99 L 351.06,280.81 L 367.23,281.69 L 372.34,282.59 L 376.46,284.37 L 376.10,285.12 L 372.75,286.63 L 369.70,288.64 L 367.97,293.68 L 364.25,296.99 L 365.22,300.85 L 367.27,301.09 L 368.23,302.29 L 365.41,306.66 L 361.80,309.99 L 357.84,312.87 L 359.28,315.53 L 364.61,315.32 L 365.71,319.81 L 368.35,323.78 L 369.02,328.47 L 363.84,332.09 L 361.58,333.22 L 359.54,334.63 L 357.18,335.16 L 354.80,335.53 L 350.26,332.29 L 347.11,327.59 L 344.61,325.07 L 343.94,328.33 L 341.72,329.91 L 338.41,331.69 L 334.69,332.85 L 331.20,333.59 L 327.97,333.71 L 325.26,331.36 L 320.57,331.80 L 317.69,331.62 L 310.09,331.94 L 303.45,335.47 L 301.70,337.42 L 300.30,338.14 L 298.96,336.71 L 297.54,338.17 L 296.51,339.93 L 294.18,342.07 L 289.77,344.82 L 287.85,345.35 L 287.42,344.43 L 286.58,343.73 L 280.49,343.54 L 271.48,341.62 L 269.11,339.93 L 267.43,337.53 L 265.18,335.77 L 262.75,335.74 L 260.37,336.29 L 257.89,337.95 L 255.77,339.80 L 252.26,340.46 L 248.61,341.55 L 245.58,342.21 L 242.41,341.85 L 238.57,340.31 L 235.76,340.75 L 232.81,338.96 L 226.26,341.15 L 219.60,344.03 L 211.20,341.55 L 210.12,339.86 L 211.38,337.37 L 213.60,333.70 L 222.79,331.06 L 224.63,331.40 L 226.46,332.02 L 227.84,330.69 L 230.21,329.57 L 234.44,329.38 L 238.78,329.92 L 244.69,327.66 L 245.73,320.44 L 246.70,318.01 L 246.57,315.89 L 244.29,310.03 L 238.53,309.18 L 235.13,305.31 L 233.73,300.82 L 231.24,297.01 L 234.35,294.89 L 237.73,291.90 L 241.12,289.73 L 245.12,290.02 L 252.10,287.50 L 257.26,281.77 L 258.22,275.79 L 260.91,275.69 L 263.06,275.21 L 270.00,271.44 L 274.38,270.41 Z"/>
  <path id="BG-16" d="M 342.33,401.79 L 341.68,406.18 L 343.74,415.09 L 342.57,417.51 L 340.19,418.15 L 343.22,423.17 L 343.16,424.84 L 344.13,427.58 L 346.22,429.70 L 351.06,432.41 L 356.66,432.51 L 360.77,431.52 L 362.81,434.04 L 360.37,438.46 L 363.23,440.89 L 364.86,441.48 L 365.49,443.09 L 364.70,444.88 L 362.52,444.66 L 357.89,443.21 L 354.40,445.05 L 355.13,449.46 L 355.32,452.51 L 356.66,455.28 L 359.47,459.38 L 355.81,460.97 L 351.59,462.24 L 350.00,466.51 L 351.86,471.61 L 354.26,472.91 L 355.26,472.46 L 356.61,473.61 L 358.58,474.23 L 359.95,475.05 L 359.51,476.79 L 361.75,477.10 L 363.59,474.08 L 365.89,473.89 L 370.25,473.01 L 374.20,473.77 L 378.85,476.15 L 381.96,479.53 L 379.33,478.67 L 377.45,478.41 L 376.28,478.44 L 376.08,484.19 L 377.31,488.45 L 378.28,492.92 L 377.57,494.33 L 378.16,495.43 L 379.58,496.56 L 379.22,498.53 L 375.01,503.87 L 368.63,507.05 L 365.31,506.44 L 362.45,507.82 L 361.33,509.28 L 359.51,509.78 L 357.53,511.70 L 356.38,514.42 L 353.61,516.11 L 352.98,518.85 L 352.25,520.80 L 349.26,520.60 L 347.15,519.88 L 344.79,519.85 L 340.11,515.12 L 336.76,515.93 L 332.64,516.06 L 330.22,512.73 L 327.15,510.63 L 321.60,508.03 L 317.06,503.65 L 311.00,502.38 L 304.87,502.96 L 298.40,504.35 L 292.32,507.28 L 286.37,509.35 L 272.49,501.35 L 273.92,495.55 L 271.97,489.65 L 271.28,486.21 L 272.78,483.40 L 272.38,478.23 L 275.26,476.53 L 278.70,475.89 L 280.54,474.01 L 278.55,472.25 L 276.47,471.07 L 276.56,468.58 L 277.18,465.02 L 276.22,461.63 L 274.20,459.45 L 274.03,457.61 L 275.88,454.35 L 272.99,450.66 L 270.74,449.97 L 270.76,447.56 L 269.55,444.79 L 269.42,442.02 L 269.65,440.78 L 268.12,437.62 L 265.42,437.20 L 265.70,430.93 L 267.13,424.99 L 271.33,424.85 L 274.63,423.11 L 275.21,420.36 L 272.00,418.69 L 268.15,414.66 L 262.76,412.58 L 261.15,406.88 L 265.70,400.96 L 270.80,401.36 L 278.58,396.34 L 283.29,396.28 L 289.21,396.77 L 294.86,398.42 L 299.06,402.51 L 303.99,405.73 L 309.98,406.63 L 311.86,406.32 L 312.86,405.42 L 319.41,405.44 L 325.78,406.53 L 331.51,406.05 L 336.67,403.80 L 337.10,402.27 L 338.40,401.18 L 342.29,400.51 L 342.33,401.79 Z"/>
  <path id="BG-17" d="M 590.25,283.23 L 591.79,287.23 L 588.68,289.20 L 580.47,297.18 L 578.54,296.31 L 577.13,294.65 L 575.69,294.72 L 574.34,295.20 L 571.21,297.74 L 567.51,300.20 L 564.30,301.92 L 566.39,304.40 L 564.61,306.79 L 559.94,307.89 L 555.66,310.00 L 555.02,313.09 L 556.77,315.70 L 555.64,319.20 L 552.98,318.68 L 550.42,318.65 L 549.90,323.49 L 547.29,324.05 L 544.56,324.38 L 540.10,327.77 L 537.07,327.78 L 534.12,326.82 L 526.24,326.83 L 525.35,323.18 L 526.01,318.36 L 519.63,316.83 L 512.11,316.11 L 510.45,315.39 L 508.96,314.50 L 510.85,310.15 L 505.75,306.22 L 499.36,303.40 L 493.85,302.16 L 488.47,303.62 L 485.76,300.36 L 486.16,296.04 L 485.92,295.08 L 485.65,294.20 L 486.32,293.71 L 486.84,293.05 L 486.53,290.21 L 487.95,287.96 L 489.56,288.96 L 491.23,290.21 L 495.88,287.67 L 502.32,288.36 L 503.97,286.37 L 505.68,283.61 L 508.21,282.63 L 507.89,277.55 L 510.11,275.33 L 507.09,274.13 L 503.33,273.90 L 496.87,271.69 L 497.17,266.71 L 502.85,264.14 L 505.59,259.47 L 514.91,252.07 L 519.29,251.61 L 523.45,252.41 L 526.80,255.13 L 530.34,254.39 L 533.53,252.66 L 536.35,253.64 L 538.56,255.88 L 539.52,258.01 L 542.45,262.06 L 553.00,264.78 L 557.18,265.11 L 559.38,267.49 L 561.16,269.81 L 562.13,268.31 L 564.02,268.05 L 566.24,267.42 L 567.99,265.45 L 569.86,265.27 L 570.69,267.65 L 572.68,269.94 L 574.96,271.18 L 576.22,272.56 L 578.07,273.76 L 578.10,276.56 L 579.35,278.02 L 581.59,276.94 L 583.61,277.83 L 586.59,281.06 L 590.25,283.23 Z"/>
  <path id="BG-18" d="M 407.42,287.08 L 410.26,286.87 L 412.56,285.99 L 414.91,285.58 L 417.73,284.70 L 420.39,283.51 L 422.34,282.16 L 424.57,281.01 L 432.24,280.83 L 433.07,280.81 L 438.25,279.18 L 441.14,275.71 L 441.38,275.24 L 445.50,272.15 L 449.23,270.60 L 455.11,265.18 L 456.11,263.40 L 457.30,261.95 L 472.29,253.97 L 473.20,252.04 L 475.41,249.64 L 480.01,245.93 L 484.31,244.24 L 494.37,242.36 L 504.22,239.23 L 506.94,238.94 L 507.22,240.14 L 509.10,243.01 L 512.41,243.36 L 513.23,247.12 L 514.91,252.07 L 505.59,259.47 L 502.85,264.14 L 497.17,266.71 L 496.87,271.69 L 503.33,273.90 L 507.09,274.13 L 510.11,275.33 L 507.89,277.55 L 508.21,282.63 L 505.68,283.61 L 503.97,286.37 L 502.32,288.36 L 495.88,287.67 L 491.23,290.21 L 489.56,288.96 L 487.95,287.96 L 486.53,290.21 L 486.84,293.05 L 486.32,293.71 L 485.65,294.20 L 485.92,295.08 L 486.16,296.04 L 485.76,300.36 L 488.47,303.62 L 486.00,304.68 L 482.86,304.25 L 480.09,304.67 L 477.24,304.24 L 474.31,305.88 L 470.40,307.19 L 469.75,311.21 L 467.97,313.92 L 465.08,316.11 L 461.86,317.85 L 458.81,318.50 L 459.51,321.30 L 461.71,323.82 L 465.04,324.14 L 467.87,325.12 L 468.29,327.86 L 468.07,330.68 L 463.54,330.45 L 459.21,329.25 L 458.11,326.33 L 457.47,323.65 L 453.86,323.59 L 450.36,324.91 L 447.10,325.01 L 443.87,324.45 L 439.57,324.16 L 435.34,323.28 L 432.88,321.61 L 431.01,320.09 L 429.11,320.12 L 428.10,318.68 L 425.10,318.69 L 423.49,320.98 L 416.38,319.00 L 409.45,313.92 L 410.33,310.56 L 411.54,307.06 L 409.67,306.25 L 407.97,307.66 L 406.05,307.43 L 405.83,305.90 L 399.48,302.38 L 398.82,299.70 L 401.55,298.13 L 404.23,293.84 L 401.94,288.36 L 401.02,286.95 L 401.81,286.84 L 407.42,287.08 Z"/>
  <path id="BG-19" d="M 593.58,223.72 L 602.64,227.78 L 615.77,229.68 L 618.41,230.74 L 621.45,230.53 L 621.64,230.64 L 623.68,231.78 L 623.09,234.60 L 625.71,236.75 L 632.73,239.17 L 634.22,240.14 L 636.62,243.20 L 637.99,243.90 L 661.75,243.75 L 669.10,242.07 L 671.94,242.81 L 674.42,246.59 L 675.21,247.37 L 675.17,247.37 L 671.81,247.30 L 669.49,248.73 L 670.10,251.49 L 667.82,253.36 L 665.52,253.43 L 666.23,254.87 L 665.86,257.25 L 662.19,257.78 L 659.42,255.95 L 656.31,256.57 L 654.83,260.35 L 655.14,264.22 L 650.13,266.86 L 643.77,265.18 L 639.86,265.76 L 636.73,267.58 L 638.27,273.70 L 632.81,273.78 L 627.09,270.40 L 624.60,271.37 L 623.05,273.86 L 617.01,277.85 L 616.69,283.43 L 619.69,286.82 L 617.52,287.46 L 615.09,287.05 L 606.82,286.91 L 601.88,282.78 L 596.89,280.48 L 590.25,283.23 L 586.59,281.06 L 583.61,277.83 L 581.59,276.94 L 579.35,278.02 L 578.10,276.56 L 578.07,273.76 L 576.22,272.56 L 574.96,271.18 L 572.68,269.94 L 570.69,267.65 L 569.86,265.27 L 567.99,265.45 L 566.24,267.42 L 564.02,268.05 L 562.13,268.31 L 561.16,269.81 L 559.38,267.49 L 557.18,265.11 L 553.00,264.78 L 542.45,262.06 L 539.52,258.01 L 538.56,255.88 L 536.35,253.64 L 533.53,252.66 L 530.34,254.39 L 526.80,255.13 L 523.45,252.41 L 519.29,251.61 L 514.91,252.07 L 513.23,247.12 L 512.41,243.36 L 509.10,243.01 L 507.22,240.14 L 506.94,238.94 L 517.34,237.83 L 542.07,235.21 L 546.25,234.15 L 548.75,233.93 L 549.94,233.69 L 552.42,232.56 L 553.85,232.31 L 559.45,232.31 L 563.91,231.33 L 575.71,226.28 L 590.34,225.21 L 593.58,223.72 Z"/>
  <path id="BG-20" d="M 468.59,476.01 L 462.33,470.42 L 462.93,461.29 L 460.39,455.63 L 454.64,449.66 L 452.97,446.84 L 453.13,443.72 L 449.65,438.98 L 451.11,436.50 L 450.80,433.50 L 448.66,430.52 L 445.84,429.75 L 444.46,427.91 L 450.94,424.22 L 450.40,419.76 L 446.90,414.76 L 443.33,405.94 L 441.95,397.48 L 447.63,397.35 L 453.26,396.44 L 461.45,397.31 L 464.23,395.79 L 466.81,393.66 L 469.69,393.18 L 472.61,393.19 L 474.14,390.43 L 473.85,386.83 L 475.77,384.61 L 478.75,383.97 L 484.16,381.65 L 486.95,376.76 L 490.29,376.37 L 493.47,375.56 L 495.04,373.79 L 496.85,372.19 L 498.92,371.49 L 499.76,369.81 L 499.87,367.89 L 499.76,366.09 L 501.88,366.46 L 503.97,366.38 L 507.37,365.24 L 510.50,366.30 L 509.93,367.78 L 510.81,369.17 L 512.09,368.53 L 513.04,367.30 L 517.70,369.63 L 520.88,369.77 L 523.97,369.25 L 526.77,367.94 L 529.51,368.74 L 533.18,370.61 L 537.10,372.09 L 534.38,375.69 L 536.86,379.92 L 537.28,382.38 L 536.11,385.23 L 537.90,388.57 L 539.34,391.77 L 537.49,393.59 L 536.96,395.90 L 537.59,399.01 L 534.73,400.89 L 530.83,401.96 L 527.71,404.05 L 529.44,407.28 L 533.38,408.22 L 536.42,409.68 L 539.44,410.85 L 543.75,409.90 L 547.88,408.32 L 548.24,412.43 L 546.98,416.13 L 545.70,417.54 L 544.07,418.25 L 540.73,417.80 L 539.53,419.00 L 537.76,419.89 L 535.81,421.24 L 533.92,423.06 L 526.71,424.75 L 519.52,424.25 L 515.94,424.91 L 512.65,426.63 L 513.93,428.65 L 515.25,430.31 L 512.88,431.21 L 510.78,432.69 L 508.20,437.62 L 502.40,439.05 L 496.09,437.34 L 493.45,438.53 L 494.71,442.39 L 491.06,444.26 L 486.53,444.52 L 487.38,449.11 L 491.27,449.25 L 493.56,450.48 L 487.17,461.93 L 488.06,467.98 L 486.26,472.57 L 481.74,475.47 L 478.79,475.90 L 476.04,474.97 L 472.42,475.06 L 468.59,476.01 Z"/>
  <path id="BG-21" d="M 253.17,555.46 L 252.01,555.16 L 251.79,554.47 L 252.07,553.42 L 251.96,552.33 L 249.52,551.16 L 247.51,549.45 L 245.33,549.66 L 242.98,550.41 L 240.90,551.41 L 240.85,551.38 L 225.97,541.90 L 229.17,540.33 L 231.60,538.09 L 228.27,536.38 L 227.11,534.81 L 225.30,534.14 L 229.01,531.26 L 228.68,527.19 L 226.81,525.33 L 224.53,523.97 L 224.12,520.97 L 228.68,520.34 L 234.90,521.07 L 239.85,524.45 L 239.28,526.73 L 238.34,528.93 L 240.57,529.05 L 242.96,527.36 L 250.07,527.21 L 255.47,523.58 L 255.55,517.80 L 260.84,512.31 L 264.48,510.57 L 269.10,508.81 L 271.08,504.83 L 272.49,501.35 L 286.37,509.35 L 292.32,507.28 L 298.40,504.35 L 304.87,502.96 L 311.00,502.38 L 317.06,503.65 L 321.60,508.03 L 327.15,510.63 L 330.22,512.73 L 332.64,516.06 L 336.76,515.93 L 340.11,515.12 L 344.79,519.85 L 347.15,519.88 L 349.26,520.60 L 347.07,522.39 L 345.66,524.85 L 346.99,527.00 L 349.13,529.27 L 350.49,533.44 L 352.23,534.75 L 351.41,537.19 L 351.64,540.07 L 352.59,541.25 L 352.13,542.19 L 349.00,543.93 L 345.56,544.58 L 342.73,544.18 L 340.07,544.94 L 340.10,547.70 L 342.34,550.01 L 344.32,553.79 L 346.76,557.30 L 349.71,558.41 L 351.94,555.86 L 358.60,554.43 L 359.95,560.17 L 359.20,561.77 L 359.81,562.93 L 359.37,566.01 L 357.69,568.80 L 358.82,570.32 L 360.18,571.85 L 359.55,572.93 L 359.14,574.12 L 360.18,580.00 L 360.06,581.35 L 355.41,579.70 L 354.93,579.28 L 353.96,578.04 L 353.59,577.72 L 352.95,577.71 L 350.91,578.04 L 330.54,571.52 L 326.73,569.74 L 325.05,569.59 L 323.82,569.78 L 321.22,570.48 L 316.37,570.74 L 315.99,572.40 L 316.32,574.57 L 315.25,576.38 L 312.78,576.29 L 310.06,574.47 L 305.84,570.36 L 303.40,568.71 L 301.12,567.89 L 298.67,567.62 L 295.80,567.62 L 296.56,566.38 L 292.22,566.43 L 290.52,566.11 L 288.60,564.77 L 288.51,564.32 L 288.82,562.94 L 288.68,562.32 L 288.20,561.90 L 287.02,561.33 L 286.57,560.97 L 285.90,560.25 L 285.25,559.76 L 284.74,559.18 L 284.38,558.15 L 283.98,554.70 L 282.43,551.43 L 279.84,549.68 L 276.25,550.73 L 273.49,551.19 L 270.95,553.91 L 269.10,554.22 L 266.47,553.89 L 264.55,554.04 L 260.37,554.98 L 259.26,555.07 L 255.92,554.77 L 254.84,554.89 L 254.03,555.25 L 253.17,555.46 Z"/>
  <path id="BG-22" d="M 125.74,383.13 L 127.72,383.69 L 129.29,385.09 L 135.49,388.13 L 141.55,389.39 L 147.76,387.43 L 153.47,386.53 L 158.38,389.78 L 163.04,389.99 L 167.47,387.73 L 165.95,391.00 L 163.37,394.53 L 156.60,405.43 L 154.29,413.05 L 156.19,415.79 L 161.45,425.24 L 168.00,433.79 L 171.93,436.56 L 173.19,440.72 L 170.10,443.08 L 166.53,441.95 L 161.27,442.60 L 157.94,440.92 L 159.35,436.78 L 156.84,433.38 L 156.03,431.21 L 155.98,429.70 L 150.92,428.94 L 148.55,432.56 L 145.48,436.14 L 141.02,435.32 L 136.53,432.75 L 126.34,428.71 L 124.03,426.73 L 116.65,422.57 L 112.78,421.45 L 112.21,417.08 L 111.33,414.73 L 110.02,412.65 L 107.43,411.68 L 105.25,410.37 L 102.33,408.19 L 99.05,406.57 L 102.92,402.96 L 108.13,402.55 L 110.75,403.88 L 113.72,404.20 L 115.93,403.33 L 117.80,401.65 L 118.07,399.19 L 116.53,396.91 L 122.66,393.20 L 122.75,387.51 L 125.74,383.13 Z"/>
  <path id="BG-23" d="M 59.17,383.02 L 59.91,381.62 L 62.12,375.57 L 62.89,373.99 L 63.76,372.94 L 65.22,372.30 L 68.67,371.70 L 70.30,371.23 L 70.31,371.23 L 70.32,371.22 L 70.32,371.20 L 71.97,369.48 L 77.20,365.85 L 77.86,364.88 L 78.76,362.60 L 79.38,361.72 L 80.43,361.03 L 82.55,360.30 L 83.56,359.75 L 86.10,356.92 L 88.39,352.82 L 89.71,348.65 L 89.50,347.07 L 95.23,346.12 L 104.22,353.99 L 107.50,355.81 L 119.09,356.56 L 123.38,355.08 L 127.28,354.32 L 131.27,355.35 L 136.84,353.75 L 141.35,350.11 L 145.39,350.23 L 149.22,351.68 L 150.18,353.36 L 147.54,353.38 L 145.79,354.44 L 145.87,356.92 L 147.75,358.27 L 149.85,359.32 L 153.15,361.62 L 156.06,364.39 L 157.94,367.17 L 160.50,369.27 L 165.37,367.08 L 170.69,363.80 L 172.66,365.17 L 174.55,366.89 L 177.84,367.01 L 180.96,366.10 L 183.66,363.59 L 187.10,361.96 L 191.78,363.42 L 204.09,365.08 L 206.11,365.84 L 208.24,366.95 L 211.16,365.49 L 213.45,362.95 L 217.04,362.91 L 219.29,364.73 L 220.24,366.57 L 221.99,367.87 L 222.78,370.44 L 221.83,373.06 L 224.44,375.35 L 227.55,377.60 L 232.38,378.42 L 235.13,381.79 L 235.45,385.82 L 235.22,389.88 L 233.54,394.89 L 236.02,397.73 L 251.80,397.87 L 254.81,399.10 L 257.70,400.60 L 261.67,401.26 L 265.70,400.96 L 261.15,406.88 L 262.76,412.58 L 268.15,414.66 L 272.00,418.69 L 275.21,420.36 L 274.63,423.11 L 271.33,424.85 L 267.13,424.99 L 264.49,424.30 L 261.83,424.68 L 259.93,424.61 L 258.46,423.03 L 256.08,422.53 L 253.87,421.76 L 253.18,419.54 L 251.77,417.61 L 248.35,416.75 L 244.79,416.57 L 242.63,417.24 L 240.45,417.55 L 235.89,418.93 L 232.41,422.56 L 229.54,423.61 L 226.41,423.65 L 220.59,426.08 L 217.49,425.47 L 214.77,423.75 L 211.44,422.85 L 207.99,423.09 L 204.30,424.06 L 203.56,426.87 L 204.73,429.51 L 206.46,431.79 L 208.50,432.99 L 210.05,434.73 L 214.78,437.87 L 221.08,437.10 L 223.08,439.58 L 221.04,444.19 L 216.21,445.72 L 211.20,446.15 L 208.97,451.82 L 210.97,456.46 L 212.94,457.67 L 213.03,459.74 L 211.03,461.64 L 208.43,461.00 L 206.81,459.74 L 205.35,458.15 L 202.36,458.81 L 201.38,462.46 L 197.33,466.91 L 191.44,468.71 L 190.60,469.86 L 190.80,471.53 L 188.93,472.49 L 186.74,472.91 L 184.74,472.82 L 183.35,474.23 L 181.11,475.04 L 178.68,474.25 L 174.41,474.78 L 171.10,475.76 L 166.44,476.24 L 164.02,480.79 L 159.87,484.56 L 153.15,482.70 L 156.33,480.89 L 157.65,478.19 L 154.34,477.03 L 150.62,476.80 L 148.20,473.61 L 144.98,471.76 L 139.47,472.87 L 133.88,473.46 L 132.09,470.65 L 136.03,466.79 L 137.55,464.57 L 140.06,463.93 L 141.40,462.38 L 139.56,459.75 L 136.85,459.00 L 134.82,457.33 L 133.90,456.10 L 132.46,455.52 L 128.26,448.48 L 125.63,448.97 L 122.73,449.09 L 120.70,448.28 L 118.51,448.54 L 119.01,446.26 L 120.63,444.41 L 119.36,438.97 L 122.15,433.39 L 126.34,428.71 L 136.53,432.75 L 141.02,435.32 L 145.48,436.14 L 148.55,432.56 L 150.92,428.94 L 155.98,429.70 L 156.03,431.21 L 156.84,433.38 L 159.35,436.78 L 157.94,440.92 L 161.27,442.60 L 166.53,441.95 L 170.10,443.08 L 173.19,440.72 L 171.93,436.56 L 168.00,433.79 L 161.45,425.24 L 156.19,415.79 L 154.29,413.05 L 156.60,405.43 L 163.37,394.53 L 165.95,391.00 L 167.47,387.73 L 163.04,389.99 L 158.38,389.78 L 153.47,386.53 L 147.76,387.43 L 141.55,389.39 L 135.49,388.13 L 129.29,385.09 L 127.72,383.69 L 125.74,383.13 L 122.75,387.51 L 122.66,393.20 L 116.53,396.91 L 118.07,399.19 L 117.80,401.65 L 115.93,403.33 L 113.72,404.20 L 110.75,403.88 L 108.13,402.55 L 102.92,402.96 L 99.05,406.57 L 97.17,402.87 L 94.73,399.99 L 90.94,400.36 L 88.59,399.97 L 87.26,398.31 L 83.50,398.32 L 81.37,395.21 L 78.96,393.07 L 75.85,394.40 L 73.41,393.14 L 74.19,389.23 L 72.33,388.47 L 70.68,390.67 L 68.60,391.00 L 67.71,390.37 L 66.51,390.47 L 65.38,389.30 L 64.71,387.77 L 62.57,385.32 L 59.84,383.53 L 59.17,383.02 Z"/>
  <path id="BG-24" d="M 356.66,432.51 L 351.06,432.41 L 346.22,429.70 L 344.13,427.58 L 343.16,424.84 L 343.22,423.17 L 340.19,418.15 L 342.57,417.51 L 343.74,415.09 L 341.68,406.18 L 342.33,401.79 L 348.73,402.18 L 355.17,401.26 L 361.60,398.99 L 367.84,398.75 L 369.65,400.88 L 371.70,402.47 L 376.75,400.27 L 383.50,401.25 L 390.00,403.34 L 394.02,403.09 L 397.03,401.38 L 399.13,401.64 L 401.19,402.14 L 403.45,401.40 L 405.33,400.51 L 407.66,401.20 L 410.61,398.74 L 412.64,399.42 L 414.77,401.57 L 417.26,403.08 L 419.06,401.76 L 418.17,399.46 L 421.09,399.63 L 423.30,400.65 L 425.22,399.71 L 427.53,398.29 L 432.08,396.73 L 434.34,397.28 L 436.68,397.53 L 439.31,397.20 L 441.95,397.48 L 443.33,405.94 L 446.90,414.76 L 450.40,419.76 L 450.94,424.22 L 444.46,427.91 L 445.84,429.75 L 448.66,430.52 L 450.80,433.50 L 451.11,436.50 L 449.65,438.98 L 453.13,443.72 L 452.97,446.84 L 454.64,449.66 L 460.39,455.63 L 462.93,461.29 L 462.33,470.42 L 468.59,476.01 L 472.42,475.06 L 476.04,474.97 L 478.79,475.90 L 481.74,475.47 L 481.67,482.51 L 483.39,485.86 L 483.32,489.35 L 477.86,490.58 L 472.63,492.60 L 469.01,490.41 L 465.79,486.92 L 459.26,481.58 L 450.37,479.69 L 449.32,479.18 L 447.59,480.03 L 446.21,481.51 L 441.03,485.28 L 435.19,487.38 L 432.24,484.27 L 427.08,480.30 L 423.61,478.12 L 419.73,479.52 L 416.61,478.84 L 418.48,476.91 L 418.71,474.75 L 418.53,472.58 L 414.28,471.02 L 408.25,474.19 L 404.05,473.07 L 399.96,474.29 L 398.15,478.31 L 396.96,482.75 L 395.68,482.59 L 394.30,482.62 L 392.87,482.39 L 391.49,481.43 L 390.52,480.95 L 389.10,480.83 L 386.39,480.96 L 381.96,479.53 L 378.85,476.15 L 374.20,473.77 L 370.25,473.01 L 365.89,473.89 L 363.59,474.08 L 361.75,477.10 L 359.51,476.79 L 359.95,475.05 L 358.58,474.23 L 356.61,473.61 L 355.26,472.46 L 354.26,472.91 L 351.86,471.61 L 350.00,466.51 L 351.59,462.24 L 355.81,460.97 L 359.47,459.38 L 356.66,455.28 L 355.32,452.51 L 355.13,449.46 L 354.40,445.05 L 357.89,443.21 L 362.52,444.66 L 364.70,444.88 L 365.49,443.09 L 364.86,441.48 L 363.23,440.89 L 360.37,438.46 L 362.81,434.04 L 360.77,431.52 L 356.66,432.51 Z"/>
  <path id="BG-25" d="M 510.81,369.17 L 509.93,367.78 L 510.50,366.30 L 507.37,365.24 L 503.97,366.38 L 501.88,366.46 L 499.76,366.09 L 499.87,367.89 L 499.76,369.81 L 498.92,371.49 L 496.85,372.19 L 495.04,373.79 L 493.47,375.56 L 490.29,376.37 L 486.95,376.76 L 482.42,374.06 L 477.31,373.22 L 476.66,370.41 L 479.39,368.70 L 479.50,367.07 L 477.78,366.63 L 476.29,365.49 L 475.70,363.59 L 474.27,360.81 L 472.66,358.14 L 472.89,355.16 L 474.63,352.45 L 474.59,350.31 L 475.39,348.50 L 477.20,348.51 L 478.94,348.24 L 477.51,343.63 L 473.43,339.69 L 473.65,336.92 L 476.28,334.84 L 472.85,332.00 L 468.07,330.68 L 468.29,327.86 L 467.87,325.12 L 465.04,324.14 L 461.71,323.82 L 459.51,321.30 L 458.81,318.50 L 461.86,317.85 L 465.08,316.11 L 467.97,313.92 L 469.75,311.21 L 470.40,307.19 L 474.31,305.88 L 477.24,304.24 L 480.09,304.67 L 482.86,304.25 L 486.00,304.68 L 488.47,303.62 L 493.85,302.16 L 499.36,303.40 L 505.75,306.22 L 510.85,310.15 L 508.96,314.50 L 510.45,315.39 L 512.11,316.11 L 519.63,316.83 L 526.01,318.36 L 525.35,323.18 L 526.24,326.83 L 534.12,326.82 L 537.07,327.78 L 540.10,327.77 L 544.56,324.38 L 547.29,324.05 L 549.90,323.49 L 550.42,318.65 L 552.98,318.68 L 555.64,319.20 L 561.82,320.13 L 562.90,324.53 L 560.56,325.73 L 558.83,327.58 L 557.63,330.47 L 556.94,333.33 L 560.99,338.98 L 560.78,344.32 L 558.98,344.35 L 557.17,345.43 L 555.74,348.66 L 554.00,351.08 L 550.01,352.17 L 547.39,355.30 L 548.69,357.05 L 551.05,358.09 L 550.02,359.83 L 547.34,360.32 L 547.02,362.16 L 545.91,364.28 L 543.71,364.52 L 542.07,365.72 L 543.82,367.47 L 544.02,369.61 L 540.94,370.14 L 539.16,371.47 L 537.10,372.09 L 533.18,370.61 L 529.51,368.74 L 526.77,367.94 L 523.97,369.25 L 520.88,369.77 L 517.70,369.63 L 513.04,367.30 L 512.09,368.53 L 510.81,369.17 Z"/>
  <path id="BG-26" d="M 534.43,509.80 L 534.32,510.69 L 533.80,512.96 L 532.77,515.24 L 531.09,516.95 L 525.14,518.31 L 512.32,517.90 L 507.17,521.27 L 505.41,524.28 L 504.94,526.98 L 505.81,529.48 L 507.07,530.81 L 502.28,531.15 L 499.66,530.58 L 498.05,529.56 L 494.74,526.72 L 493.71,526.24 L 491.92,526.14 L 489.19,528.11 L 482.36,528.27 L 479.03,528.96 L 475.68,531.00 L 474.75,531.30 L 473.90,531.33 L 473.06,531.52 L 472.21,532.25 L 471.52,533.79 L 471.44,535.60 L 471.79,537.36 L 472.38,538.82 L 472.94,539.44 L 472.88,539.42 L 472.05,539.09 L 466.74,540.44 L 465.38,542.52 L 463.10,542.48 L 461.06,543.33 L 460.15,545.90 L 455.16,549.54 L 449.70,547.62 L 444.04,543.06 L 443.20,540.61 L 442.73,538.06 L 438.38,536.84 L 433.99,538.45 L 432.48,540.91 L 429.97,542.27 L 427.77,541.99 L 425.67,541.10 L 422.96,542.01 L 420.54,542.36 L 416.37,540.70 L 417.09,537.27 L 419.91,532.32 L 416.64,527.33 L 415.31,525.80 L 413.89,524.78 L 411.58,524.77 L 409.45,523.74 L 407.14,521.63 L 404.41,521.72 L 402.24,523.54 L 399.57,523.71 L 396.88,521.96 L 391.79,520.25 L 390.61,518.49 L 390.77,516.06 L 389.41,514.16 L 387.02,514.23 L 384.90,515.17 L 382.07,517.78 L 378.28,518.76 L 371.70,517.85 L 367.16,510.19 L 368.63,507.05 L 375.01,503.87 L 379.22,498.53 L 379.58,496.56 L 378.16,495.43 L 377.57,494.33 L 378.28,492.92 L 377.31,488.45 L 376.08,484.19 L 376.28,478.44 L 377.45,478.41 L 379.33,478.67 L 381.96,479.53 L 386.39,480.96 L 389.10,480.83 L 390.52,480.95 L 391.49,481.43 L 392.87,482.39 L 394.30,482.62 L 395.68,482.59 L 396.96,482.75 L 398.15,478.31 L 399.96,474.29 L 404.05,473.07 L 408.25,474.19 L 414.28,471.02 L 418.53,472.58 L 418.71,474.75 L 418.48,476.91 L 416.61,478.84 L 419.73,479.52 L 423.61,478.12 L 427.08,480.30 L 432.24,484.27 L 435.19,487.38 L 441.03,485.28 L 446.21,481.51 L 447.59,480.03 L 449.32,479.18 L 450.37,479.69 L 459.26,481.58 L 465.79,486.92 L 469.01,490.41 L 472.63,492.60 L 477.86,490.58 L 483.32,489.35 L 494.00,493.36 L 505.41,494.47 L 509.19,496.59 L 510.13,500.47 L 511.24,502.43 L 513.08,500.20 L 515.74,497.55 L 520.02,498.26 L 523.05,501.37 L 522.85,506.07 L 525.38,508.27 L 528.52,509.77 L 531.66,510.96 L 534.36,509.83 L 534.43,509.80 Z"/>
  <path id="BG-27" d="M 536.86,379.92 L 534.38,375.69 L 537.10,372.09 L 539.16,371.47 L 540.94,370.14 L 544.02,369.61 L 543.82,367.47 L 542.07,365.72 L 543.71,364.52 L 545.91,364.28 L 547.02,362.16 L 547.34,360.32 L 550.02,359.83 L 551.05,358.09 L 548.69,357.05 L 547.39,355.30 L 550.01,352.17 L 554.00,351.08 L 555.74,348.66 L 557.17,345.43 L 558.98,344.35 L 560.78,344.32 L 560.99,338.98 L 556.94,333.33 L 557.63,330.47 L 558.83,327.58 L 560.56,325.73 L 562.90,324.53 L 561.82,320.13 L 555.64,319.20 L 556.77,315.70 L 555.02,313.09 L 555.66,310.00 L 559.94,307.89 L 564.61,306.79 L 566.39,304.40 L 564.30,301.92 L 567.51,300.20 L 571.21,297.74 L 574.34,295.20 L 575.69,294.72 L 577.13,294.65 L 578.54,296.31 L 580.47,297.18 L 588.68,289.20 L 591.79,287.23 L 590.25,283.23 L 596.89,280.48 L 601.88,282.78 L 606.82,286.91 L 615.09,287.05 L 622.09,291.24 L 624.66,295.02 L 628.27,296.28 L 633.20,295.16 L 638.22,294.47 L 641.10,295.81 L 642.36,299.22 L 632.34,301.32 L 625.68,305.60 L 631.77,307.09 L 630.37,309.90 L 628.90,311.38 L 630.38,312.37 L 631.96,314.08 L 627.52,318.78 L 625.03,320.85 L 623.89,323.20 L 624.02,326.34 L 626.17,328.51 L 627.86,330.65 L 624.78,332.44 L 621.34,333.37 L 621.38,336.52 L 621.15,338.96 L 616.87,339.70 L 612.49,340.01 L 609.70,341.54 L 609.23,344.62 L 612.49,346.99 L 616.61,348.17 L 616.52,351.11 L 612.49,352.79 L 610.43,355.46 L 613.32,357.94 L 609.84,360.03 L 615.53,361.48 L 616.21,364.51 L 610.33,365.60 L 602.86,368.64 L 599.93,370.30 L 601.79,373.38 L 605.00,376.19 L 599.13,378.09 L 593.11,379.29 L 587.85,377.86 L 582.92,378.02 L 578.83,378.64 L 574.89,376.70 L 567.82,377.13 L 565.35,377.03 L 563.21,378.05 L 560.53,381.83 L 556.34,383.60 L 551.48,384.26 L 547.11,382.88 L 547.21,380.11 L 545.94,378.24 L 536.86,379.92 Z"/>
  <path id="BG-28" d="M 596.12,484.71 L 595.95,484.71 L 592.97,485.84 L 590.20,489.71 L 587.79,490.95 L 586.06,491.49 L 584.95,492.77 L 583.93,494.28 L 582.54,495.52 L 581.46,495.73 L 579.12,495.44 L 577.82,495.86 L 576.48,496.86 L 575.34,496.85 L 574.16,496.52 L 572.80,496.55 L 571.46,497.18 L 569.95,498.13 L 568.68,498.94 L 567.65,499.32 L 566.28,499.05 L 563.97,497.54 L 562.80,497.11 L 561.31,497.44 L 558.62,499.47 L 557.34,500.16 L 554.95,500.36 L 543.24,498.90 L 541.01,499.11 L 538.99,500.18 L 535.39,503.06 L 534.48,503.57 L 533.71,504.16 L 533.19,504.97 L 533.41,505.46 L 534.92,506.17 L 535.29,506.59 L 535.19,507.29 L 534.66,508.39 L 534.52,509.04 L 534.43,509.80 L 534.36,509.83 L 531.66,510.96 L 528.52,509.77 L 525.38,508.27 L 522.85,506.07 L 523.05,501.37 L 520.02,498.26 L 515.74,497.55 L 513.08,500.20 L 511.24,502.43 L 510.13,500.47 L 509.19,496.59 L 505.41,494.47 L 494.00,493.36 L 483.32,489.35 L 483.39,485.86 L 481.67,482.51 L 481.74,475.47 L 486.26,472.57 L 488.06,467.98 L 487.17,461.93 L 493.56,450.48 L 491.27,449.25 L 487.38,449.11 L 486.53,444.52 L 491.06,444.26 L 494.71,442.39 L 493.45,438.53 L 496.09,437.34 L 502.40,439.05 L 508.20,437.62 L 510.78,432.69 L 512.88,431.21 L 515.25,430.31 L 513.93,428.65 L 512.65,426.63 L 515.94,424.91 L 519.52,424.25 L 526.71,424.75 L 533.92,423.06 L 535.81,421.24 L 537.76,419.89 L 539.53,419.00 L 540.73,417.80 L 544.07,418.25 L 545.70,417.54 L 546.98,416.13 L 548.24,412.43 L 547.88,408.32 L 555.18,409.15 L 559.92,416.00 L 560.93,419.47 L 562.44,422.64 L 564.07,423.73 L 564.97,425.38 L 565.22,426.97 L 566.29,428.12 L 571.18,432.60 L 573.85,433.75 L 573.95,436.29 L 585.24,442.46 L 586.25,444.68 L 587.62,446.79 L 591.28,447.74 L 595.15,447.79 L 598.92,449.57 L 601.31,453.01 L 600.54,456.90 L 596.39,458.68 L 594.72,460.83 L 594.72,463.72 L 595.13,465.87 L 593.81,468.43 L 592.63,472.06 L 594.38,475.42 L 597.00,478.80 L 596.02,483.39 L 596.12,484.69 L 596.12,484.71 Z"/>
</svg>